<?xml version="1.0" standalone="no"?>
<!DOCTYPE svg PUBLIC "-//W3C//DTD SVG 20010904//EN"
 "http://www.w3.org/TR/2001/REC-SVG-20010904/DTD/svg10.dtd">
<svg version="1.0" xmlns="http://www.w3.org/2000/svg"
 width="327.000000pt" height="112.000000pt" viewBox="0 0 327.000000 112.000000"
 preserveAspectRatio="xMidYMid meet">
<metadata>
Created by potrace 1.16, written by Peter Selinger 2001-2019
</metadata>
<g transform="translate(0.000000,112.000000) scale(0.100000,-0.100000)"
fill="#000000" stroke="none">
<path d="M630 785 c-9 -10 -10 -42 -5 -112 3 -54 9 -199 13 -323 7 -216 8
-225 27 -225 17 0 21 9 26 65 12 120 46 215 91 258 55 51 74 4 69 -173 -2 -94
1 -124 12 -140 13 -17 18 -18 41 -7 l26 12 0 150 c0 204 -20 250 -110 250 -27
0 -80 -41 -80 -62 0 -4 -6 -5 -14 -2 -9 4 -16 29 -20 77 -10 130 -17 202 -22
225 -5 25 -35 30 -54 7z"/>
<path d="M189 716 c-94 -33 -133 -76 -164 -183 -19 -64 -20 -203 -1 -246 33
-80 172 -167 266 -167 26 0 62 -12 106 -35 36 -19 71 -35 78 -35 7 0 18 12 25
27 14 30 7 40 -59 76 l-32 17 31 35 c38 44 57 80 87 169 29 83 30 137 5 191
-20 45 -58 77 -153 129 -71 39 -124 46 -189 22z m186 -110 c39 -25 77 -56 84
-70 33 -60 -16 -223 -86 -287 -70 -65 -156 -57 -235 22 l-48 48 0 79 c0 78 18
154 48 200 22 34 61 51 116 52 41 0 61 -7 121 -44z"/>
<path d="M1427 538 c-13 -7 -17 -17 -13 -36 4 -15 9 -52 11 -82 8 -75 33 -197
51 -248 13 -36 20 -42 44 -42 41 0 67 32 94 120 14 43 30 76 38 78 17 3 72
-96 82 -147 11 -59 57 -91 84 -59 36 45 145 374 131 399 -11 22 -40 32 -53 19
-6 -6 -29 -65 -51 -132 -22 -67 -45 -123 -51 -125 -17 -6 -60 86 -79 167 -18
84 -28 100 -60 100 -30 0 -40 -14 -58 -80 -9 -30 -23 -81 -32 -112 -20 -74
-38 -75 -55 -1 -10 45 -56 182 -63 190 -1 1 -10 -3 -20 -9z"/>
<path d="M1110 513 c-26 -13 -35 -24 -35 -43 0 -23 3 -25 44 -22 24 2 54 8 67
12 19 8 26 4 44 -28 30 -50 18 -66 -51 -70 -35 -2 -61 -10 -74 -22 -11 -10
-29 -20 -40 -22 -11 -2 -29 -19 -39 -39 -24 -45 -16 -96 23 -138 23 -25 37
-31 70 -31 23 0 59 9 81 20 49 25 54 25 90 -1 16 -12 36 -19 44 -16 24 9 19
51 -9 77 -24 22 -25 29 -25 135 0 99 -3 116 -21 139 -42 54 -116 75 -169 49z
m106 -218 c24 -36 4 -77 -51 -106 -42 -22 -44 -23 -63 -5 -31 27 -33 54 -7 83
19 23 69 49 97 52 4 1 15 -10 24 -24z"/>
<path d="M2115 516 c-44 -19 -58 -39 -42 -60 10 -14 19 -15 66 -6 72 13 78 13
85 -7 3 -10 11 -25 18 -35 20 -27 -5 -46 -64 -46 -37 -1 -56 -6 -72 -21 -12
-12 -29 -21 -38 -21 -8 0 -22 -8 -30 -17 -39 -44 -34 -114 11 -162 23 -25 37
-31 70 -31 23 0 59 9 81 20 49 25 54 25 90 -1 16 -12 36 -19 44 -16 24 9 19
51 -9 77 -24 22 -25 29 -25 133 0 94 -3 113 -21 138 -37 52 -113 78 -164 55z
m95 -211 c32 -38 1 -100 -62 -126 -29 -12 -33 -11 -54 15 -13 15 -24 31 -24
36 0 19 49 65 81 76 45 16 45 16 59 -1z"/>
<path d="M2554 520 c-12 -5 -25 -13 -29 -19 -9 -16 -35 -13 -35 4 0 21 -37 19
-48 -2 -5 -10 -10 -100 -11 -200 l-2 -183 30 0 c35 0 41 16 41 115 0 82 12
130 43 176 19 28 29 34 57 34 l35 0 5 -125 c6 -133 19 -174 62 -204 30 -22 35
-20 52 12 14 27 13 30 -7 50 -34 35 -45 88 -34 170 13 93 -1 145 -43 167 -32
16 -83 19 -116 5z"/>
<path d="M2920 513 c-26 -13 -35 -24 -35 -43 0 -23 3 -25 44 -22 24 2 54 8 67
12 19 8 26 4 44 -28 30 -50 18 -66 -52 -70 -40 -2 -61 -9 -73 -22 -10 -11 -26
-20 -37 -20 -22 0 -58 -55 -58 -90 0 -27 33 -87 59 -107 24 -19 87 -15 131 7
49 25 54 25 90 -1 16 -12 36 -19 44 -16 24 9 19 53 -9 81 -24 24 -25 31 -25
134 0 96 -3 113 -21 136 -42 54 -116 75 -169 49z m106 -218 c23 -36 4 -80 -48
-106 -47 -24 -62 -20 -82 20 -15 28 -15 31 8 57 20 24 69 50 98 53 4 1 15 -10
24 -24z"/>
</g>
</svg>
